<svg xmlns="http://www.w3.org/2000/svg" xmlns:xlink="http://www.w3.org/1999/xlink" viewBox="0 0 834 1500" width="834" height="1500">
  <defs>
    <linearGradient id="linear-gradient" x1="59.3" x2="-165.36" y1="109.4" y2="428.84" gradientTransform="rotate(53 -40.33 243.51)" gradientUnits="userSpaceOnUse">
      <stop offset="0" stop-color="#fff"/>
      <stop offset=".95" stop-color="#fff" stop-opacity="0"/>
    </linearGradient>
    <linearGradient id="linear-gradient-2" x1="924.23" x2="588.73" y1="11.06" y2="324.86" gradientTransform="rotate(36.03 770.82 154.59)" xlink:href="#linear-gradient"/>
    <linearGradient id="linear-gradient-3" x1="358.54" x2="584.29" y1="1531.82" y2="1306.07" gradientTransform="rotate(-50.86 467.77 1422.67)" xlink:href="#linear-gradient"/>
    <linearGradient id="linear-gradient-4" x1="669.29" x2="333.78" y1="957.23" y2="1271.04" gradientTransform="rotate(36.03 515.85 1100.79)" xlink:href="#linear-gradient"/>
  </defs>
  <rect width="834" height="1500" y="-.09" fill="#007bb8" rx="6" ry="6"/>
  <g>
    <path d="M-98.2 340.56h364.08v364.08H-98.2z" fill="#fff" opacity=".07" transform="rotate(-28.87 83.85 522.64)"/>
    <path d="M577.52 286.16L370.3 560.22 96.47 353.36l207-274.42 274.05 207.22z" fill="#fff" opacity=".07"/>
    <path fill="url(#linear-gradient)" d="M-211.58 76.92H132V420.5h-343.58z" opacity=".1" transform="rotate(-53.04 -39.78 248.74)"/>
    <path d="M44.28-314.11h343.58V29.47H44.28z" fill="#fff" opacity="0.05" transform="rotate(-25.1 216.1 -142.35)"/>
    <path fill="url(#linear-gradient-2)" d="M599-17.22h343.58v343.58H599z" opacity=".25" transform="rotate(-36.03 770.82 154.57)"/>
    <path d="M653.46 184.97h343.58v343.58H653.46z" fill="#fff" opacity="0.05" transform="rotate(-60.1 825.2 356.76)"/>
    <path d="M647.22 539.58H990.8v343.58H647.22z" fill="#fff" opacity="0.1" transform="rotate(-39.69 818.91 711.33)"/>
    <path d="M24.88 630.74h343.58v343.58H24.88z" fill="#fff" opacity=".07" transform="rotate(-65.39 196.63 802.5)"/>
    <path d="M337 1421.63l-207.23 274.06-273.83-206.86 207-274.42L337 1421.63z" fill="#fff" opacity="0.1"/>
    <path fill="url(#linear-gradient-3)" d="M295.94 1250.84h343.58v343.58H295.94z" opacity=".25" transform="rotate(50.86 467.73 1422.68)"/>
    <path d="M653.46 1053.81h343.58v343.58H653.46z" fill="#fff" opacity="0.05" transform="rotate(17.37 825.21 1225.55)"/>
    <path fill="url(#linear-gradient-4)" d="M344.05 928.96h343.58v343.58H344.05z" opacity=".1" transform="rotate(-36.03 515.87 1100.79)"/>
  </g>
</svg>
